{"title":"Better Off Dead (1985) John Cusack (DVDrip, optional MULTISUBS)","uid":4953351,"size":734539667,"categoryP":"video","categoryS":"movies","magnet":"?xt=urn:btih:a8cb729349f51e2d44c49ade8ec73a11dcec852b&amp;dn=Better+Off+Dead+%281985%29+John+Cusack+%28DVDrip%2C+optional+MULTISUBS%29&amp;tr=udp%3A%2F%2Ftracker.openbittorrent.com%3A80&amp;tr=udp%3A%2F%2Fopen.demonii.com%3A1337&amp;tr=udp%3A%2F%2Ftracker.coppersurfer.tk%3A6969&amp;tr=udp%3A%2F%2Fexodus.desync.com%3A6969","seeders":1,"leechers":0,"uploader":"Kuthumi","files":-1,"time":1244996681,"description":"aka\nHellere DÃƒÂ¸d End Levende\nHeller dÃƒÂ¸d en sprÃƒÂ¸\nLika gÃƒÂ¤rna dÃƒÂ¸d &lt;a href=&quot;\nhttp://www.imdb.com/title/tt0088794/&quot; rel=&quot;nofollow&quot; target=&quot;_NEW&quot;&gt;\nhttp://www.imdb.com/title/tt0088794/&lt;/a&gt;\n\nOptional subtitles in separate idx/sub files (Work in Windows Media Player etc., see enclosed Note): Danish, English, English for the hearing impaired, French, German, Norwegian, Spanish, Swedish.\n(Sorry, Finnish and Dutch friends, your subtitles were not on the DVD.)\n\nWell-established actor John Cusack committed several memorable crazy teenage comedies in is younger days, and I think this is one of the funniest. \n\nReally good picture quality and stereo sound for such an old film.\n\nWidescreen DVDrip XviD 2-pass 720x384, good stereo sound AC3.\nRuns well in both my standalone DivX players.\n\nMediaInfo analysis:\n\nFormat/Info                      : Audio Video Interleave\nFile size                        : 695 MiB\nDuration                         : 1h 33mn\nOveral bit rate                  : 1042 Kbps\n\nVideo\nFormat                           : MPEG-4 Visual\nFormat profile                   : Streaming Video@L1\nFormat settings, BVOP            : Yes\nFormat settings, QPel            : No\nFormat settings, GMC             : No warppoints\nFormat settings, Matrix          : Default\nMuxing mode                      : Packet Bitstream\nCodec ID                         : XVID\nCodec ID/Hint                    : XviD\nDuration                         : 1h 33mn\nBit rate                         : 904 Kbps\nWidth                            : 720 pixels\nHeight                           : 384 pixels\nDisplay aspect ratio             : 1.875\nFrame rate                       : 25.000 fps\nResolution                       : 8 bits\nColorimetry                      : 4:2:0\nScan type                        : Progressive\nBits/(Pixel*Frame)               : 0.131\nStream size                      : 603 MiB\nWriting library                  : XviD 1.2.0.dev47 (UTC 2006-11-01)\n\nAudio\nFormat                           : MPEG Audio\nFormat version                   : Version 1\nFormat profile                   : Layer 3\nCodec ID                         : 55\nCodec ID/Hint                    : MP3\nDuration                         : 1h 33mn\nBit rate mode                    : Constant\nBit rate                         : 128 Kbps\nMinimum bit rate                 : 128 Kbps\nChannel(s)                       : 2 channels\nSampling rate                    : 48.0 KHz\nResolution                       : 16 bits\nStream size                      : 85.4 MiB\nWriting library                  : LAME3.97 \nEncoding settings                : CBR\n\nSource: PAL rental (note that PAL/NTSC will give no problems for avi files).","torrent":{"xt":"urn:btih:a8cb729349f51e2d44c49ade8ec73a11dcec852b","amp;dn":"Better+Off+Dead+%281985%29+John+Cusack+%28DVDrip%2C+optional+MULTISUBS%29","amp;tr":["udp%3A%2F%2Ftracker.openbittorrent.com%3A80","udp%3A%2F%2Fopen.demonii.com%3A1337","udp%3A%2F%2Ftracker.coppersurfer.tk%3A6969","udp%3A%2F%2Fexodus.desync.com%3A6969"],"infoHash":"a8cb729349f51e2d44c49ade8ec73a11dcec852b","infoHashBuffer":{"type":"Buffer","data":[168,203,114,147,73,245,30,45,68,196,154,222,142,199,58,17,220,236,133,43]},"announce":[],"urlList":[]}}